<!DOCTYPE svg PUBLIC "-//W3C//DTD SVG 1.1//EN" "http://www.w3.org/Graphics/SVG/1.1/DTD/svg11.dtd">
<!-- Uploaded to: SVG Repo, www.svgrepo.com, Transformed by: SVG Repo Mixer Tools -->
<svg width="150px" height="150px" viewBox="-6.24 -6.24 60.48 60.48" xmlns="http://www.w3.org/2000/svg" fill="#858383" stroke="#858383" stroke-width="0.00048000000000000007" transform="rotate(270)matrix(1, 0, 0, 1, 0, 0)">
<g id="SVGRepo_bgCarrier" stroke-width="0"/>
<g id="SVGRepo_iconCarrier"> <title>network-role-solid</title> <g id="Layer_2" data-name="Layer 2"> <g id="invisible_box" data-name="invisible box"> <rect width="48" height="48" fill="none"/> </g> <g id="Q3_icons" data-name="Q3 icons"> <path d="M42,24l-6-6v4H19.7a7.4,7.4,0,0,0-1.6-3.2L26.8,10H36v4l6-6L36,2V6H25.2L15.1,16.1l-.3.4A8.7,8.7,0,0,0,12,16a8,8,0,0,0,0,16,8.7,8.7,0,0,0,2.8-.5l.3.4L25.2,42.1H36V46l6-6-6-6v4.1H26.8l-8.7-8.9A8.8,8.8,0,0,0,19.7,26H36v4Z"/> </g> </g> </g>
</svg>